<svg xmlns="http://www.w3.org/2000/svg" id="Layer_1" data-name="Layer 1" viewBox="0 0 510.02 158.89"><defs><style>.cls-1{fill:#231f20;}.cls-2{fill:#1e1e1e;}</style></defs><path class="cls-1" d="M265.9,128.84H268v22.37H265.9v-3.13a7.14,7.14,0,0,1-6.45,3.52,7.94,7.94,0,0,1-5.84-2.43,8.54,8.54,0,0,1,0-11.89,7.94,7.94,0,0,1,5.84-2.43,7.15,7.15,0,0,1,6.45,3.51Zm-10.77,18.87a6.3,6.3,0,0,0,10.77-4.49,6.3,6.3,0,1,0-10.77,4.49Z"></path><path class="cls-1" d="M274.6,137.88a5.2,5.2,0,0,1,5-2.9v2A5.24,5.24,0,0,0,276,138.3a5.13,5.13,0,0,0-1.44,4v8.88h-2.11v-16h2.11Z"></path><path class="cls-1" d="M284.67,131.39a1.55,1.55,0,0,1-2.18,0,1.46,1.46,0,0,1-.45-1.08,1.54,1.54,0,0,1,2.63-1.09,1.51,1.51,0,0,1,.44,1.09A1.49,1.49,0,0,1,284.67,131.39Zm-2.15,19.82v-16h2.11v16Z"></path><path class="cls-1" d="M300.62,135.23h2.24l-6.56,16h-2.55l-6.56-16h2.24L295,149Z"></path><path class="cls-1" d="M307.55,131.39a1.53,1.53,0,0,1-2.17,0,1.46,1.46,0,0,1-.45-1.08,1.54,1.54,0,1,1,3.07,0A1.46,1.46,0,0,1,307.55,131.39Zm-2.14,19.82v-16h2.11v16Z"></path><path class="cls-1" d="M319.48,134.85a6,6,0,0,1,4.58,1.77,6.67,6.67,0,0,1,1.68,4.78v9.81h-2.11V141.4a4.61,4.61,0,0,0-1.13-3.32,4.26,4.26,0,0,0-3.22-1.19,5,5,0,0,0-3.74,1.46,6.19,6.19,0,0,0-1.43,4.49v8.37H312v-16h2.11v2.49A5.91,5.91,0,0,1,319.48,134.85Z"></path><path class="cls-1" d="M343.58,135.23h2.11v15.34a6.7,6.7,0,0,1-2.37,5.44,8.5,8.5,0,0,1-5.65,2c-3.76,0-6.28-1.3-7.58-3.9l1.85-1.05c1,1.93,2.87,2.91,5.73,2.91a6.17,6.17,0,0,0,4.33-1.46,5.07,5.07,0,0,0,1.58-3.92v-2.49a7.14,7.14,0,0,1-6.46,3.52,7.91,7.91,0,0,1-5.83-2.43,8.51,8.51,0,0,1,0-11.89,7.91,7.91,0,0,1,5.83-2.43,7.16,7.16,0,0,1,6.46,3.51Zm-10.77,12.48a6.36,6.36,0,0,0,8.95,0,6.33,6.33,0,0,0-4.48-10.82,6.06,6.06,0,0,0-4.47,1.84,6.42,6.42,0,0,0,0,9Z"></path><path class="cls-1" d="M360.3,131.39a1.53,1.53,0,0,1-2.62-1.08,1.51,1.51,0,0,1,.44-1.09,1.54,1.54,0,0,1,2.63,1.09A1.46,1.46,0,0,1,360.3,131.39Zm-2.14,19.82v-16h2.11v16Z"></path><path class="cls-1" d="M372.22,134.85a6,6,0,0,1,4.59,1.77,6.67,6.67,0,0,1,1.68,4.78v9.81h-2.11V141.4a4.57,4.57,0,0,0-1.14-3.32,4.25,4.25,0,0,0-3.21-1.19,5,5,0,0,0-3.74,1.46,6.15,6.15,0,0,0-1.44,4.49v8.37h-2.11v-16h2.11v2.49A5.91,5.91,0,0,1,372.22,134.85Z"></path><path class="cls-1" d="M390.06,134.85a6,6,0,0,1,4.58,1.77,6.67,6.67,0,0,1,1.68,4.78v9.81h-2.11V141.4a4.61,4.61,0,0,0-1.13-3.32,4.26,4.26,0,0,0-3.22-1.19,5,5,0,0,0-3.74,1.46,6.19,6.19,0,0,0-1.43,4.49v8.37h-2.11v-16h2.11v2.49A5.91,5.91,0,0,1,390.06,134.85Z"></path><path class="cls-1" d="M413.82,149.18a8.55,8.55,0,0,1-11.92,0,8.5,8.5,0,0,1,0-11.92,8.57,8.57,0,0,1,11.92,0,8.47,8.47,0,0,1,0,11.92Zm-10.43-1.47a6.36,6.36,0,0,0,8.95,0,6.33,6.33,0,0,0-4.48-10.82,6.36,6.36,0,0,0-4.47,10.82Z"></path><path class="cls-1" d="M430.65,135.23h2.24l-6.55,16h-2.56l-6.55-16h2.24L425.06,149Z"></path><path class="cls-1" d="M448.59,135.23h2.11v16h-2.11v-3.13a7.16,7.16,0,0,1-6.46,3.52,7.9,7.9,0,0,1-5.83-2.43,8.51,8.51,0,0,1,0-11.89,7.9,7.9,0,0,1,5.83-2.43,7.17,7.17,0,0,1,6.46,3.51Zm-10.78,12.48a6.31,6.31,0,0,0,10.78-4.49,6.13,6.13,0,0,0-1.83-4.49,6.36,6.36,0,0,0-8.95,0,6.45,6.45,0,0,0,0,9Z"></path><path class="cls-1" d="M463.64,137.28H459V147a2.73,2.73,0,0,0,.51,1.87,2,2,0,0,0,1.53.58c.69,0,1.54,0,2.56,0v1.85c-2.24.34-3.91.18-5-.48s-1.68-1.91-1.68-3.77v-9.68h-3.36v-2.05h3.36v-3.84l2.11-.63v4.47h4.6Z"></path><path class="cls-1" d="M469.3,131.39a1.48,1.48,0,0,1-1.09.45,1.54,1.54,0,0,1-1.53-1.53,1.48,1.48,0,0,1,.45-1.09,1.46,1.46,0,0,1,1.08-.45,1.54,1.54,0,0,1,1.54,1.54A1.46,1.46,0,0,1,469.3,131.39Zm-2.14,19.82v-16h2.11v16Z"></path><path class="cls-1" d="M487.15,149.18a8.55,8.55,0,0,1-11.92,0,8.47,8.47,0,0,1,0-11.92,8.57,8.57,0,0,1,11.92,0,8.47,8.47,0,0,1,0,11.92Zm-10.43-1.47a6.36,6.36,0,0,0,8.95,0,6.33,6.33,0,0,0-4.48-10.82,6.06,6.06,0,0,0-4.47,1.84,6.42,6.42,0,0,0,0,9Z"></path><path class="cls-1" d="M500.59,134.85a6,6,0,0,1,4.59,1.77,6.67,6.67,0,0,1,1.68,4.78v9.81h-2.11V141.4a4.57,4.57,0,0,0-1.14-3.32,4.22,4.22,0,0,0-3.21-1.19,5,5,0,0,0-3.74,1.46,6.15,6.15,0,0,0-1.44,4.49v8.37h-2.11v-16h2.11v2.49A5.93,5.93,0,0,1,500.59,134.85Z"></path><path class="cls-2" d="M60.46,72.3A22.21,22.21,0,0,1,72.75,92.75a23.5,23.5,0,0,1-7.65,17.93,26.34,26.34,0,0,1-18.69,7.15H8.78V30H43.65A25.76,25.76,0,0,1,61.9,37a22.76,22.76,0,0,1,7.47,17.37Q69.37,65.78,60.46,72.3ZM43.65,43.57H23.21V66.66H43.65a10.81,10.81,0,0,0,8-3.33,11.27,11.27,0,0,0,3.26-8.21,11.29,11.29,0,0,0-3.26-8.22A10.81,10.81,0,0,0,43.65,43.57Zm2.76,60.72a11.32,11.32,0,0,0,8.47-3.58,12.73,12.73,0,0,0,0-17.43,11.29,11.29,0,0,0-8.47-3.58H23.21v24.59Z"></path><path class="cls-2" d="M95.71,92.24a17.19,17.19,0,0,0,6.9,11,22.16,22.16,0,0,0,13.17,3.83q10.78,0,16.18-7.78l11.16,6.52q-9.28,13.68-27.47,13.67-15.3,0-24.71-9.34T81.53,86.47q0-14,9.28-23.52t23.84-9.47q13.8,0,22.64,9.66a33.52,33.52,0,0,1,8.84,23.46,42.55,42.55,0,0,1-.5,5.64Zm-.13-11h36.88q-1.38-7.65-6.34-11.54a18.19,18.19,0,0,0-11.6-3.89A19,19,0,0,0,102,69.92,18.64,18.64,0,0,0,95.58,81.21Z"></path><path class="cls-2" d="M207.47,55.12H221v62.71H207.47v-9q-7.65,10.67-21.95,10.66a29.42,29.42,0,0,1-22.08-9.59,32.66,32.66,0,0,1-9.16-23.4q0-13.92,9.16-23.45a29.48,29.48,0,0,1,22.08-9.54q14.29,0,21.95,10.54Zm-34,45.72a20.46,20.46,0,0,0,28.34,0,19.59,19.59,0,0,0,5.65-14.37,19.57,19.57,0,0,0-5.65-14.36,20.44,20.44,0,0,0-28.34,0,19.57,19.57,0,0,0-5.65,14.36A19.59,19.59,0,0,0,173.48,100.84Z"></path><path class="cls-2" d="M250.37,65.65Q255.5,54,269.68,54V68.66a20.09,20.09,0,0,0-13.54,3.7q-5.77,4.22-5.77,13.86v31.61H236.82V55.12h13.55Z"></path><path class="cls-2" d="M313,30a28.29,28.29,0,0,1,20.76,8.28,27.81,27.81,0,0,1,8.34,20.57,27.88,27.88,0,0,1-8.34,20.51A28.18,28.18,0,0,1,313,87.73H295v30.1H280.6V30Zm0,44.15a14,14,0,0,0,10.54-4.33,15.22,15.22,0,0,0,4.14-11,15.26,15.26,0,0,0-4.14-11A14,14,0,0,0,313,43.57H295V74.18Z"></path><path class="cls-2" d="M353.73,117.83V26.26h13.54v91.57Z"></path><path class="cls-2" d="M393.61,92.24a17.27,17.27,0,0,0,6.9,11,22.2,22.2,0,0,0,13.17,3.83q10.79,0,16.19-7.78L441,105.79q-9.28,13.68-27.47,13.67-15.31,0-24.71-9.34t-9.41-23.65q0-14,9.28-23.52t23.83-9.47q13.8,0,22.65,9.66A33.52,33.52,0,0,1,444,86.6a42.55,42.55,0,0,1-.5,5.64Zm-.12-11h36.88Q429,73.56,424,69.67a18.19,18.19,0,0,0-11.6-3.89,19,19,0,0,0-12.54,4.14A18.64,18.64,0,0,0,393.49,81.21Z"></path><path class="cls-2" d="M509,117.83H493.33L477.78,96.38,462.1,117.83H446.29L469.88,85.6,447.55,55.12h15.68l14.42,19.81,14.43-19.81h15.8l-22.32,30.6Z"></path><path class="cls-1" d="M507,17.13H489L483.4,0l-5.56,17.13h-18l10.06,7.31,3.32-1.27h0l4-1.77.12-1,1.61-.81,1.1,1.17h1.27l1.07-.87c1.91,1.3,1.49,2.44,1.45,2.53l4.35,2.85,1.49,1.07-1,1.45-.45.69L482,28.9h0l0,0-2.12,2.63L498,44.84l-5.56-17.12Z"></path></svg>